<svg width="56" height="64" viewBox="0 0 56 64" fill="none" xmlns="http://www.w3.org/2000/svg">
<g id="Group 57">
<path id="Vector" d="M26.7898 6.71027C22.1128 6.70115 17.4362 6.7007 12.76 6.7089C10.4134 6.713 8.28917 8.32117 7.7371 10.6226C7.62858 11.0776 7.57387 11.9847 7.57297 13.3439C7.57025 24.4115 7.57025 35.4785 7.57297 46.5452C7.57297 47.2863 7.30981 47.687 6.5597 47.6897C4.97807 47.697 3.39554 47.6975 1.81211 47.6911C1.04029 47.687 0.6537 47.4272 0.6537 46.6327C0.654604 35.3746 0.654152 24.1161 0.652344 12.8571C0.652344 11.6528 0.697559 10.7439 0.787989 10.1304C1.4947 5.34962 4.8899 1.44681 9.53711 0.139494C9.85316 0.0506071 10.4107 0.00274502 10.819 0.00274502C16.6653 0.00456833 22.5111 0.00365661 28.3565 9.98165e-06C29.3865 -0.000901676 30.1746 0.0606353 30.7208 0.184621C31.5944 0.38245 32.4128 0.708824 33.176 1.16374C36.5762 3.19127 38.581 6.12544 39.1905 9.96625C39.2945 10.6181 39.3465 11.527 39.3465 12.693C39.3474 14.5145 39.3465 16.3351 39.3438 18.1548C39.3343 24.2469 34.8838 29.1712 28.9371 30.0574C27.738 30.2365 26.3097 30.0314 24.7972 30.1654C24.6399 30.1791 24.5612 30.1061 24.5612 29.9466V23.2828C24.5612 23.2472 24.5753 23.2129 24.6004 23.1876C24.6256 23.1622 24.6597 23.1478 24.6955 23.1475C26.0044 23.1461 27.6281 23.2733 28.7499 22.9752C31.3312 22.2887 32.3988 20.0269 32.4096 17.482C32.4178 15.6896 32.4209 13.8973 32.4191 12.105C32.4178 9.68045 31.1156 7.45691 28.6807 6.85522C28.2937 6.76041 27.6634 6.71209 26.7898 6.71027Z" fill="white"/>
<path id="Vector_2" d="M44.6949 40.4914C46.3497 39.9991 47.7265 38.6248 48.2054 36.9483C48.3329 36.5025 48.3971 35.8361 48.398 34.949C48.4016 31.4665 48.4025 27.9835 48.4007 24.5001C48.3998 23.4097 48.3315 22.6289 48.1959 22.1575C47.6899 20.4058 46.2263 18.9959 44.4548 18.5693C43.413 18.319 41.8477 18.4311 40.6011 18.4284C40.5559 18.4284 40.5333 18.4056 40.5333 18.36V11.524C40.5333 11.4775 40.5563 11.4533 40.6024 11.4515C41.6795 11.3995 42.7529 11.3982 43.8227 11.4474C49.4126 11.7017 54.1317 15.8917 55.1395 21.3904C55.2571 22.0322 55.3159 22.9397 55.3159 24.1131C55.3177 27.6548 55.3195 31.1966 55.3213 34.7384C55.3222 35.9336 55.2729 36.8425 55.1735 37.4652C54.3487 42.6343 50.2821 46.7012 45.1628 47.5367C44.5416 47.6379 43.64 47.6894 42.4581 47.6913C38.1228 47.6967 33.7876 47.6967 29.4524 47.6913C28.247 47.6894 27.3449 47.6434 26.7463 47.5531C21.5388 46.7723 17.422 42.6575 16.5797 37.4214C16.4793 36.7942 16.4282 35.8853 16.4264 34.6947C16.42 31.0389 16.4191 27.3836 16.4237 23.7288C16.4318 17.5081 20.8959 12.365 26.9687 11.5226C27.968 11.384 29.3715 11.3708 31.1792 11.4829C31.2208 11.4857 31.2416 11.508 31.2416 11.55V18.3641C31.2416 18.3812 31.235 18.3975 31.2233 18.4096C31.2116 18.4216 31.1957 18.4284 31.1792 18.4284C29.9204 18.4325 28.3672 18.3163 27.2902 18.5775C25.5322 19.0055 24.0836 20.4044 23.5654 22.1685C23.4433 22.586 23.3814 23.1832 23.3796 23.9599C23.3696 27.5755 23.3538 31.1907 23.3321 34.8054C23.3158 37.5787 24.5203 39.7516 27.2048 40.5065C27.637 40.6277 28.2081 40.6911 28.918 40.6966C33.5444 40.733 38.1694 40.7326 42.7931 40.6952C43.6242 40.6888 44.2581 40.6209 44.6949 40.4914Z" fill="white"/>
<path id="Vector_3" d="M9.85338 30.1518C9.28232 30.1491 8.96626 29.624 8.96491 29.1071C8.9631 28.2282 8.96174 27.3508 8.96084 26.4747C8.95812 25.0484 9.22128 23.8751 10.5899 23.3541C11.6819 22.9397 13.8264 23.1489 15.1666 23.1476C15.2127 23.1476 15.2358 23.1704 15.2358 23.2159V30.0903C15.2358 30.1073 15.2291 30.1237 15.2171 30.1357C15.2052 30.1478 15.1889 30.1546 15.172 30.1546C13.4032 30.1591 11.6303 30.1582 9.85338 30.1518Z" fill="white"/>
<path id="Vector_4" d="M0.882989 56.1626C0.823704 56.1585 0.768147 56.1318 0.727411 56.088C0.686676 56.0441 0.663761 55.9863 0.663244 55.9261C0.649679 53.9979 0.648775 52.1085 0.660531 50.2578C0.663244 49.9242 0.703937 49.7806 1.07425 49.7806C2.84487 49.7778 4.61414 49.7783 6.38205 49.7819C8.14272 49.786 8.2119 51.0687 8.19834 52.4116C8.17935 54.1155 7.11318 54.2864 5.64007 54.3069C4.58656 54.3206 3.52717 54.3101 2.4619 54.2755C2.44749 54.2749 2.43312 54.2773 2.41964 54.2825C2.40617 54.2877 2.39387 54.2956 2.38348 54.3056C2.3731 54.3157 2.36484 54.3278 2.3592 54.3412C2.35356 54.3546 2.35066 54.369 2.35067 54.3835C2.34886 54.8731 2.34841 55.3786 2.34931 55.9001C2.34931 56.1025 2.25888 56.1977 2.07802 56.1859C1.6738 56.1599 1.26958 56.19 0.882989 56.1626ZM2.3466 51.3231L2.34931 52.8219C2.34931 52.8411 2.35689 52.8595 2.37037 52.8731C2.38385 52.8867 2.40214 52.8943 2.42121 52.8943L5.93578 52.8875C6.01736 52.8873 6.09811 52.8705 6.17342 52.838C6.24873 52.8054 6.31712 52.7578 6.37468 52.6979C6.43224 52.638 6.47786 52.5668 6.50891 52.4886C6.53997 52.4104 6.55586 52.3266 6.55568 52.242V51.8865C6.55531 51.7157 6.48951 51.552 6.37275 51.4315C6.25599 51.3109 6.09783 51.2434 5.93306 51.2438L2.41849 51.2506C2.40905 51.2506 2.3997 51.2525 2.39098 51.2561C2.38226 51.2598 2.37433 51.2651 2.36766 51.2718C2.36098 51.2786 2.35569 51.2866 2.35207 51.2954C2.34846 51.3042 2.3466 51.3136 2.3466 51.3231Z" fill="white"/>
<path id="Vector_5" d="M11.1334 56.1846C9.94243 56.1859 8.95493 55.4653 8.92645 54.1962C8.8957 52.8242 8.8853 51.4212 8.89525 49.9871C8.89543 49.959 8.90109 49.9312 8.9119 49.9053C8.92272 49.8794 8.93848 49.8559 8.95827 49.8362C8.97807 49.8165 9.0015 49.801 9.02724 49.7905C9.05297 49.78 9.08049 49.7748 9.10821 49.7752L10.3792 49.7888C10.4029 49.789 10.4263 49.7939 10.4481 49.8031C10.47 49.8123 10.4898 49.8258 10.5064 49.8427C10.523 49.8596 10.5361 49.8796 10.545 49.9015C10.5539 49.9235 10.5584 49.947 10.5583 49.9707C10.551 51.2133 10.5537 52.4714 10.5664 53.745C10.5732 54.5463 10.9652 54.6721 11.6909 54.6667C13.0021 54.6575 14.3138 54.6667 15.626 54.694C15.6685 54.6951 15.709 54.7131 15.7384 54.7441C15.7679 54.7751 15.784 54.8166 15.7833 54.8595L15.763 55.9877C15.7619 56.0349 15.7428 56.0799 15.7096 56.1131C15.6764 56.1463 15.6318 56.1651 15.5853 56.1654C14.1203 56.1773 12.6363 56.1837 11.1334 56.1846Z" fill="white"/>
<path id="Vector_6" d="M22.5112 54.9416H18.4242C18.3673 54.9416 18.3243 54.9666 18.2954 55.0168L17.6741 56.1094C17.6506 56.1513 17.6144 56.1723 17.5656 56.1723H16.1128C16.0775 56.1723 16.0429 56.163 16.0122 56.1453C15.9816 56.1277 15.9561 56.1022 15.9383 56.0715C15.9205 56.0408 15.9109 56.0059 15.9106 55.9703C15.9103 55.9348 15.9192 55.8997 15.9365 55.8687C17.0162 53.9488 18.1159 52.0452 19.2354 50.1581C19.3887 49.8996 19.8146 49.7889 20.1374 49.7779C20.9961 49.7506 21.4139 49.756 21.8615 50.5177C22.906 52.2927 23.954 54.0882 25.0057 55.9043C25.0212 55.9313 25.0295 55.9619 25.0296 55.9931C25.0298 56.0243 25.0218 56.055 25.0065 56.082C24.9913 56.1091 24.9693 56.1315 24.9427 56.1471C24.9161 56.1627 24.8859 56.1709 24.8552 56.1709L23.4024 56.1723C23.3436 56.1723 23.2993 56.1472 23.2695 56.0971L22.6157 55.0004C22.5922 54.9612 22.5573 54.9416 22.5112 54.9416ZM19.0998 53.6028C19.0954 53.61 19.0931 53.6183 19.093 53.6268C19.0929 53.6353 19.095 53.6436 19.0992 53.651C19.1033 53.6583 19.1093 53.6645 19.1165 53.6687C19.1238 53.673 19.132 53.6753 19.1404 53.6753L21.7665 53.6794C21.7747 53.6792 21.7828 53.6769 21.7898 53.6728C21.7969 53.6686 21.8028 53.6626 21.8069 53.6554C21.811 53.6483 21.8131 53.6402 21.8132 53.6319C21.8133 53.6236 21.8112 53.6155 21.8072 53.6083L20.4983 51.3027C20.494 51.2956 20.4881 51.2897 20.4809 51.2857C20.4738 51.2816 20.4658 51.2795 20.4576 51.2795C20.4494 51.2795 20.4413 51.2816 20.4342 51.2857C20.427 51.2897 20.4211 51.2956 20.4169 51.3027L19.0998 53.6028Z" fill="white"/>
<path id="Vector_7" d="M27.6718 52.9135L30.0904 49.8394C30.1229 49.7983 30.1659 49.7778 30.2192 49.7778L31.691 49.7819C31.7143 49.7822 31.7373 49.7879 31.758 49.7986C31.7787 49.8093 31.7967 49.8248 31.8104 49.8436C31.8241 49.8625 31.8332 49.8843 31.837 49.9073C31.8407 49.9304 31.8391 49.9539 31.8321 49.9761C31.7923 50.1028 31.7199 50.2305 31.615 50.359C30.5633 51.6353 29.5134 52.913 28.4654 54.1921C28.44 54.2222 28.4274 54.2568 28.4274 54.296V56.0259C28.427 56.0633 28.4122 56.099 28.3861 56.1256C28.3601 56.1521 28.3247 56.1674 28.2877 56.1681C27.8789 56.1754 27.4729 56.1754 27.0696 56.1681C26.8571 56.1635 26.7517 56.0628 26.7535 55.8659C26.7589 55.3526 26.7644 54.8467 26.7698 54.348C26.7707 54.2755 26.7462 54.2049 26.7006 54.1483L23.4248 50.0992C23.4018 50.0706 23.3873 50.036 23.3829 49.9995C23.3786 49.963 23.3845 49.9259 23.4001 49.8926C23.4157 49.8593 23.4403 49.8312 23.471 49.8114C23.5018 49.7915 23.5375 49.7809 23.574 49.7806C24.0542 49.7787 24.5307 49.7778 25.0037 49.7778C25.2329 49.7765 27.269 52.5374 27.5606 52.9121C27.5977 52.9595 27.6347 52.96 27.6718 52.9135Z" fill="white"/>
<path id="Vector_8" d="M33.4117 53.6825C33.3927 54.2021 33.5975 54.6958 34.1998 54.6985C35.5988 54.704 36.9977 54.7021 38.3967 54.693C38.5558 54.6921 38.7082 54.7208 38.8538 54.7792C38.9053 54.8002 38.9311 54.838 38.9311 54.8927L38.9352 56.0523C38.9352 56.0825 38.9232 56.1116 38.9019 56.1331C38.8806 56.1546 38.8516 56.1668 38.8212 56.1672C37.2559 56.1809 35.6797 56.1777 34.0926 56.1576C31.4286 56.1234 31.6375 53.8425 31.7582 51.8733C31.8423 50.5167 32.5834 49.8266 33.9814 49.8029C35.5196 49.7765 37.0592 49.7705 38.6001 49.7851C38.8036 49.7869 38.9094 49.8649 38.9175 50.019C38.9356 50.3809 38.9433 50.7091 38.9406 51.0036C38.9388 51.1667 38.8565 51.2483 38.6937 51.2483C37.227 51.2483 35.7706 51.2497 34.3246 51.2524C33.6862 51.2533 33.3859 51.5752 33.4239 52.2179C33.4257 52.2562 33.4456 52.2753 33.4836 52.2753H38.5961C38.6691 52.2753 38.7391 52.3046 38.7908 52.3566C38.8424 52.4087 38.8714 52.4793 38.8714 52.5529V53.4377C38.8714 53.483 38.8536 53.5265 38.8218 53.5585C38.79 53.5906 38.7468 53.6086 38.7019 53.6086H33.4877C33.468 53.6086 33.4491 53.6163 33.4349 53.6301C33.4207 53.6438 33.4124 53.6626 33.4117 53.6825Z" fill="white"/>
<path id="Vector_9" d="M40.0016 56.1645C39.8605 56.1554 39.79 56.0793 39.79 55.9361L39.7859 50.0641C39.7859 49.9897 39.8151 49.9182 39.8673 49.8654C39.9194 49.8127 39.9901 49.7828 40.064 49.7824C41.8834 49.7742 43.7237 49.777 45.5847 49.7907C47.2884 49.803 47.4376 51.3619 47.2925 52.6542C47.2156 53.3397 46.8299 53.8019 46.1354 54.0408C46.1271 54.0439 46.1195 54.0491 46.1135 54.0557C46.1075 54.0624 46.1032 54.0705 46.101 54.0792C46.0987 54.0879 46.0986 54.0971 46.1005 54.1059C46.1025 54.1146 46.1066 54.1228 46.1124 54.1297L47.5665 55.8295C47.5922 55.8596 47.6087 55.8965 47.6142 55.9359C47.6197 55.9752 47.6139 56.0153 47.5975 56.0514C47.5811 56.0876 47.5548 56.1182 47.5216 56.1397C47.4885 56.1612 47.4499 56.1726 47.4105 56.1727H45.9198C45.8628 56.1727 45.8162 56.1504 45.7801 56.1057L44.3544 54.3225C44.3264 54.287 44.2898 54.2687 44.2445 54.2678L41.5072 54.2323C41.4921 54.2323 41.4776 54.2382 41.4669 54.2487C41.4563 54.2592 41.4503 54.2734 41.4503 54.2883C41.4494 54.8344 41.448 55.3828 41.4462 55.9334C41.4453 56.1048 41.3725 56.1864 41.2278 56.1782C40.8141 56.1536 40.4017 56.1878 40.0016 56.1645ZM41.4448 51.3072L41.4503 52.8388C41.4503 52.8616 41.4593 52.8835 41.4753 52.8997C41.4913 52.9159 41.5131 52.9249 41.5357 52.9249L44.9865 52.9126C45.1646 52.9122 45.3352 52.8457 45.4608 52.7277C45.5865 52.6098 45.6569 52.45 45.6566 52.2836L45.6539 51.835C45.6538 51.7526 45.6362 51.671 45.6023 51.5949C45.5685 51.5188 45.5189 51.4497 45.4564 51.3915C45.3939 51.3334 45.3198 51.2873 45.2382 51.2559C45.1567 51.2246 45.0693 51.2085 44.9811 51.2087L41.5303 51.221C41.5076 51.221 41.4859 51.2301 41.4699 51.2463C41.4538 51.2624 41.4448 51.2843 41.4448 51.3072Z" fill="white"/>
<path id="Vector_10" d="M53.4819 53.6602C53.3155 53.6256 53.1482 53.6083 52.98 53.6083C51.8587 53.611 50.7401 53.6078 49.6241 53.5987C48.3097 53.5864 47.9109 52.5868 48.0018 51.4394C48.1022 50.1745 48.6801 49.7875 49.8819 49.7834C51.5557 49.777 53.221 49.7761 54.8777 49.7807C54.9308 49.781 54.9817 49.8025 55.0193 49.8404C55.0568 49.8782 55.0781 49.9295 55.0784 49.9831L55.0825 51.0224C55.0825 51.0522 55.0767 51.0817 55.0654 51.1092C55.0541 51.1368 55.0375 51.1618 55.0166 51.1829C54.9957 51.204 54.9708 51.2207 54.9435 51.2321C54.9162 51.2435 54.8869 51.2494 54.8573 51.2494H49.9524C49.8869 51.2494 49.8241 51.2756 49.7778 51.3223C49.7315 51.3689 49.7055 51.4322 49.7055 51.4982V52.0329C49.7055 52.0648 49.7118 52.0964 49.7239 52.1259C49.7361 52.1553 49.7539 52.1821 49.7763 52.2046C49.7988 52.2271 49.8254 52.2449 49.8547 52.2569C49.884 52.269 49.9153 52.2752 49.947 52.275C51.1805 52.2732 52.4166 52.275 53.6555 52.2804C54.5901 52.2859 55.1788 52.7372 55.2982 53.6849C55.5057 55.3204 55.0974 56.1641 53.3571 56.1696C51.6489 56.175 49.9366 56.1755 48.2202 56.1709C48.1783 56.1705 48.1379 56.1547 48.1069 56.1265C48.0759 56.0982 48.0563 56.0595 48.052 56.0178C48.0195 55.7128 47.854 54.6941 48.3749 54.6941C50.0532 54.6968 51.7357 54.7004 53.4222 54.705C53.4531 54.7051 53.4834 54.6954 53.5089 54.6773C53.5343 54.6592 53.5538 54.6336 53.5646 54.6038C53.6641 54.3212 53.6695 54.0368 53.5809 53.7505C53.5655 53.7013 53.5325 53.6712 53.4819 53.6602Z" fill="white"/>
<path id="Vector_11" d="M13.5333 63.9927C13.1336 63.9927 12.7503 63.8326 12.4677 63.5477C12.1851 63.2628 12.0263 62.8764 12.0263 62.4734V59.9983C12.0263 59.4198 12.258 58.865 12.6703 58.456C13.0827 58.0469 13.642 57.8171 14.2251 57.8171H18.2185C18.8017 57.8171 19.361 58.0469 19.7733 58.456C20.1857 58.865 20.4173 59.4198 20.4173 59.9983V62.4734C20.4173 62.8764 20.2585 63.2628 19.9759 63.5477C19.6933 63.8326 19.31 63.9927 18.9103 63.9927H13.5333ZM18.7302 60.1189C18.7304 60.0151 18.7103 59.9123 18.671 59.8164C18.6318 59.7204 18.5742 59.6331 18.5015 59.5596C18.4288 59.4861 18.3425 59.4277 18.2475 59.3878C18.1524 59.348 18.0505 59.3273 17.9475 59.3271L14.5021 59.3211C14.3992 59.3209 14.2972 59.3412 14.202 59.3807C14.1068 59.4203 14.0203 59.4783 13.9473 59.5516C13.8744 59.6249 13.8165 59.7119 13.7769 59.8077C13.7374 59.9036 13.7169 60.0063 13.7167 60.1101L13.7134 62.0054C13.7133 62.1092 13.7334 62.2121 13.7726 62.308C13.8118 62.404 13.8694 62.4912 13.9421 62.5647C14.0148 62.6383 14.1011 62.6966 14.1962 62.7365C14.2912 62.7764 14.3931 62.797 14.4961 62.7972L17.9415 62.8033C18.0445 62.8035 18.1464 62.7832 18.2416 62.7436C18.3368 62.7041 18.4234 62.646 18.4963 62.5728C18.5692 62.4995 18.6271 62.4125 18.6667 62.3166C18.7063 62.2208 18.7267 62.1181 18.7269 62.0143L18.7302 60.1189Z" fill="white"/>
<path id="Vector_12" d="M22.9961 59.5609L23.0042 63.8972C23.0042 63.9437 22.9811 63.9669 22.935 63.9669H21.4117C21.371 63.9669 21.3498 63.9464 21.348 63.9054C21.3308 63.4377 21.329 62.9714 21.3425 62.5065C21.3792 61.232 21.3208 60.0026 21.3561 58.7472C21.3669 58.3602 21.5731 57.9049 21.9584 57.857C22.8577 57.7462 23.7652 57.6779 24.3037 58.3493C25.4304 59.756 26.5644 61.1709 27.7057 62.594C27.8241 62.7417 27.8833 62.7202 27.8833 62.5297L27.8861 58.0334C27.8862 58.0041 27.8922 57.9752 27.9035 57.9483C27.9148 57.9214 27.9313 57.897 27.952 57.8767C27.9727 57.8563 27.9973 57.8403 28.0241 57.8297C28.051 57.819 28.0797 57.8139 28.1085 57.8146L29.3958 57.8461C29.4745 57.8488 29.5138 57.8894 29.5138 57.9678L29.5247 63.7263C29.5247 63.7924 29.4987 63.8558 29.4524 63.9027C29.4062 63.9496 29.3434 63.9761 29.2778 63.9765L26.8538 63.9888C26.8032 63.9897 26.7616 63.9701 26.729 63.93L23.1466 59.5076C23.0462 59.3836 22.9961 59.4014 22.9961 59.5609Z" fill="white"/>
<path id="Vector_13" d="M31.6063 63.9435C30.8142 63.9162 30.5524 62.6471 30.5266 62.0099C30.4705 60.6652 30.4719 59.3301 30.5307 58.0045C30.5321 57.9716 30.5448 57.9401 30.5665 57.9155C30.5882 57.8908 30.6177 57.8745 30.65 57.8691C31.1203 57.7889 31.591 57.7921 32.0621 57.8787C32.1021 57.8859 32.1383 57.9073 32.164 57.9389C32.1896 57.9706 32.203 58.0103 32.2018 58.051C32.172 59.3401 32.1797 60.6365 32.2249 61.9402C32.2439 62.5254 32.5016 62.7524 33.0632 62.7579C34.4079 62.7716 35.7738 62.7761 37.161 62.7716C37.2322 62.7715 37.3007 62.7988 37.3526 62.8481C37.4045 62.8974 37.4359 62.9649 37.4404 63.0369L37.4893 63.8929C37.492 63.9412 37.4689 63.9663 37.4201 63.9681C35.4804 64.0174 33.5424 64.0092 31.6063 63.9435Z" fill="white"/>
<path id="Vector_14" d="M39.8455 60.9831C40.6286 60.0368 41.3905 59.0732 42.1311 58.0922C42.1745 58.0339 42.2623 57.9532 42.3943 57.8502C42.4314 57.821 42.473 57.8069 42.5191 57.8078L43.7738 57.827C43.9257 57.8288 44.0044 57.9067 44.0098 58.0608C44.018 58.3384 41.0704 61.7722 40.6743 62.2576C40.6481 62.2895 40.635 62.3264 40.635 62.3684L40.6363 63.8794C40.6363 63.9405 40.6056 63.9715 40.5441 63.9724L39.0208 63.993C38.9665 63.993 38.9394 63.9661 38.9394 63.9123V62.4067C38.9394 62.3602 38.9249 62.3187 38.896 62.2822L35.5483 58.1196C35.5307 58.0979 35.5192 58.0718 35.5149 58.0442C35.5105 58.0165 35.5135 57.9881 35.5236 57.962C35.5337 57.9359 35.5504 57.9129 35.5721 57.8954C35.5939 57.878 35.6198 57.8666 35.6473 57.8625C36.004 57.8119 37.1814 57.6861 37.4256 58.0075C38.1852 59.0085 38.9566 59.9999 39.7397 60.9817C39.775 61.0264 39.8102 61.0269 39.8455 60.9831Z" fill="white"/>
</g>
</svg>
