<svg width="56" height="64" viewBox="0 0 56 64" fill="none" xmlns="http://www.w3.org/2000/svg">
<path d="M26.6375 6.71027C21.9604 6.70115 17.2838 6.70069 12.6077 6.7089C10.261 6.713 8.13683 8.32117 7.58475 10.6226C7.47624 11.0776 7.42153 11.9847 7.42062 13.3439C7.41791 24.4115 7.41791 35.4785 7.42062 46.5452C7.42062 47.2863 7.15747 47.687 6.40735 47.6897C4.82573 47.697 3.2432 47.6975 1.65977 47.6911C0.887945 47.687 0.501356 47.4272 0.501356 46.6327C0.502261 35.3746 0.501809 24.1161 0.5 12.8571C0.5 11.6528 0.545215 10.7439 0.635645 10.1304C1.34236 5.34962 4.73756 1.44681 9.38477 0.139494C9.70082 0.050607 10.2583 0.00274502 10.6666 0.00274502C16.5129 0.00456833 22.3588 0.00365661 28.2042 9.98165e-06C29.2342 -0.000901676 30.0223 0.0606353 30.5685 0.184621C31.442 0.38245 32.2604 0.708824 33.0237 1.16374C36.4238 3.19127 38.4287 6.12544 39.0382 9.96625C39.1422 10.6181 39.1942 11.527 39.1942 12.693C39.1951 14.5145 39.1942 16.3351 39.1915 18.1548C39.182 24.2469 34.7314 29.1712 28.7847 30.0574C27.5856 30.2365 26.1573 30.0314 24.6449 30.1654C24.4875 30.1791 24.4088 30.1061 24.4088 29.9466V23.2828C24.4088 23.2472 24.4229 23.2129 24.4481 23.1876C24.4732 23.1622 24.5074 23.1478 24.5431 23.1475C25.8521 23.1461 27.4758 23.2733 28.5976 22.9752C31.1789 22.2887 32.2464 20.0269 32.2573 17.482C32.2654 15.6896 32.2686 13.8973 32.2668 12.105C32.2654 9.68045 30.9632 7.45691 28.5284 6.85522C28.1413 6.76041 27.511 6.71209 26.6375 6.71027Z" fill="#6769BD"/>
<path d="M44.5422 40.4914C46.1971 39.9991 47.5739 38.6248 48.0527 36.9482C48.1802 36.5024 48.2445 35.836 48.2454 34.949C48.249 31.4664 48.2499 27.9834 48.2481 24.5C48.2472 23.4096 48.1789 22.6288 48.0432 22.1575C47.5373 20.4057 46.0737 18.9959 44.3021 18.5692C43.2604 18.319 41.695 18.4311 40.4485 18.4284C40.4032 18.4284 40.3806 18.4056 40.3806 18.36V11.5239C40.3806 11.4774 40.4037 11.4533 40.4498 11.4514C41.5268 11.3995 42.6003 11.3981 43.67 11.4473C49.26 11.7017 53.9791 15.8917 54.9869 21.3903C55.1045 22.0321 55.1633 22.9397 55.1633 24.113C55.1651 27.6548 55.1669 31.1966 55.1687 34.7384C55.1696 35.9335 55.1203 36.8425 55.0208 37.4651C54.1961 42.6342 50.1295 46.7011 45.0102 47.5367C44.389 47.6379 43.4874 47.6894 42.3055 47.6912C37.9702 47.6967 33.635 47.6967 29.2998 47.6912C28.0943 47.6894 27.1923 47.6433 26.5937 47.5531C21.3862 46.7722 17.2694 42.6575 16.427 37.4214C16.3267 36.7942 16.2756 35.8852 16.2738 34.6946C16.2674 31.0389 16.2665 27.3836 16.2711 23.7287C16.2792 17.508 20.7433 12.3649 26.8161 11.5225C27.8154 11.384 29.2188 11.3708 31.0265 11.4829C31.0681 11.4856 31.0889 11.508 31.0889 11.5499V18.3641C31.0889 18.3811 31.0824 18.3975 31.0707 18.4095C31.059 18.4216 31.0431 18.4284 31.0265 18.4284C29.7678 18.4325 28.2146 18.3162 27.1376 18.5774C25.3796 19.0054 23.9309 20.4044 23.4128 22.1684C23.2907 22.586 23.2288 23.1831 23.2269 23.9598C23.217 27.5755 23.2012 31.1906 23.1795 34.8054C23.1632 37.5786 24.3677 39.7516 27.0521 40.5064C27.4844 40.6277 28.0555 40.691 28.7653 40.6965C33.3917 40.733 38.0168 40.7325 42.6405 40.6951C43.4715 40.6888 44.1055 40.6208 44.5422 40.4914Z" fill="#6769BD"/>
<path d="M9.70116 30.1519C9.13009 30.1491 8.81404 29.624 8.81268 29.1071C8.81087 28.2283 8.80952 27.3508 8.80861 26.4747C8.8059 25.0484 9.06905 23.8751 10.4377 23.3541C11.5297 22.9397 13.6742 23.149 15.0144 23.1476C15.0605 23.1476 15.0836 23.1704 15.0836 23.216V30.0903C15.0836 30.1074 15.0768 30.1237 15.0649 30.1358C15.0529 30.1478 15.0367 30.1546 15.0198 30.1546C13.251 30.1592 11.4781 30.1582 9.70116 30.1519Z" fill="#6769BD"/>
<path d="M0.730645 56.1627C0.67136 56.1586 0.615803 56.1319 0.575068 56.0881C0.534332 56.0442 0.511418 55.9864 0.5109 55.9262C0.497336 53.998 0.496431 52.1086 0.508187 50.2579C0.5109 49.9243 0.551594 49.7807 0.921905 49.7807C2.69253 49.7779 4.4618 49.7784 6.22971 49.782C7.99038 49.7861 8.05956 51.0688 8.046 52.4117C8.02701 54.1156 6.96083 54.2865 5.48773 54.307C4.43421 54.3207 3.37482 54.3102 2.30956 54.2756C2.29515 54.275 2.28077 54.2774 2.2673 54.2826C2.25382 54.2878 2.24152 54.2957 2.23114 54.3057C2.22075 54.3158 2.21249 54.3279 2.20686 54.3413C2.20122 54.3547 2.19832 54.3691 2.19833 54.3836C2.19652 54.8732 2.19607 55.3787 2.19697 55.9002C2.19697 56.1026 2.10654 56.1978 1.92568 56.186C1.52146 56.16 1.11723 56.1901 0.730645 56.1627ZM2.19426 51.3232L2.19697 52.822C2.19697 52.8412 2.20455 52.8596 2.21803 52.8732C2.23151 52.8868 2.2498 52.8944 2.26886 52.8944L5.78343 52.8876C5.86502 52.8874 5.94577 52.8706 6.02108 52.8381C6.09639 52.8055 6.16477 52.7579 6.22234 52.698C6.2799 52.6381 6.32551 52.5669 6.35657 52.4887C6.38762 52.4105 6.40351 52.3267 6.40333 52.2421V51.8866C6.40297 51.7158 6.33716 51.5521 6.2204 51.4316C6.10364 51.311 5.94548 51.2435 5.78072 51.2439L2.26615 51.2507C2.25671 51.2507 2.24736 51.2526 2.23864 51.2562C2.22992 51.2599 2.22199 51.2652 2.21531 51.2719C2.20864 51.2787 2.20334 51.2867 2.19973 51.2955C2.19612 51.3042 2.19426 51.3137 2.19426 51.3232Z" fill="#6769BD"/>
<path d="M10.9814 56.1846C9.79041 56.1859 8.80292 55.4653 8.77443 54.1962C8.74368 52.8242 8.73329 51.4212 8.74323 49.9871C8.74341 49.959 8.74907 49.9312 8.75989 49.9053C8.7707 49.8794 8.78646 49.8559 8.80626 49.8362C8.82605 49.8165 8.84949 49.801 8.87522 49.7905C8.90095 49.78 8.92847 49.7748 8.9562 49.7752L10.2272 49.7888C10.2509 49.789 10.2743 49.7939 10.2961 49.8031C10.3179 49.8123 10.3377 49.8258 10.3544 49.8427C10.371 49.8596 10.3841 49.8796 10.393 49.9015C10.4019 49.9235 10.4064 49.947 10.4062 49.9707C10.399 51.2133 10.4017 52.4714 10.4144 53.745C10.4212 54.5463 10.8132 54.6721 11.5389 54.6667C12.8501 54.6575 14.1618 54.6667 15.474 54.694C15.5165 54.6951 15.557 54.7131 15.5864 54.7441C15.6159 54.7751 15.632 54.8165 15.6313 54.8595L15.611 55.9876C15.6099 56.0349 15.5908 56.0799 15.5576 56.1131C15.5244 56.1463 15.4798 56.1651 15.4333 56.1654C13.9683 56.1773 12.4843 56.1837 10.9814 56.1846Z" fill="#6769BD"/>
<path d="M22.3591 54.9416H18.2721C18.2151 54.9416 18.1722 54.9666 18.1432 55.0168L17.522 56.1094C17.4985 56.1513 17.4623 56.1723 17.4135 56.1723H15.9607C15.9254 56.1723 15.8907 56.163 15.8601 56.1453C15.8295 56.1277 15.804 56.1022 15.7862 56.0715C15.7683 56.0408 15.7588 56.0059 15.7585 55.9704C15.7582 55.9348 15.7671 55.8997 15.7844 55.8687C16.8641 53.9488 17.9637 52.0452 19.0833 50.1581C19.2366 49.8996 19.6625 49.7889 19.9853 49.7779C20.8439 49.7506 21.2617 49.7561 21.7094 50.5177C22.7538 52.2927 23.8019 54.0882 24.8536 55.9043C24.8691 55.9313 24.8774 55.9619 24.8775 55.9931C24.8776 56.0243 24.8697 56.055 24.8544 56.082C24.8392 56.1091 24.8171 56.1315 24.7906 56.1471C24.764 56.1627 24.7338 56.1709 24.7031 56.1709L23.2503 56.1723C23.1915 56.1723 23.1472 56.1472 23.1174 56.0971L22.4636 55.0004C22.44 54.9612 22.4052 54.9416 22.3591 54.9416ZM18.9476 53.6028C18.9433 53.6101 18.941 53.6183 18.9409 53.6268C18.9408 53.6353 18.9429 53.6436 18.947 53.651C18.9512 53.6584 18.9572 53.6645 18.9644 53.6687C18.9717 53.673 18.9799 53.6753 18.9883 53.6753L21.6144 53.6794C21.6226 53.6792 21.6306 53.677 21.6377 53.6728C21.6448 53.6686 21.6506 53.6626 21.6547 53.6554C21.6588 53.6483 21.661 53.6402 21.6611 53.6319C21.6612 53.6236 21.6591 53.6155 21.6551 53.6083L20.3461 51.3027C20.3419 51.2956 20.3359 51.2897 20.3288 51.2857C20.3217 51.2816 20.3136 51.2795 20.3054 51.2795C20.2972 51.2795 20.2892 51.2816 20.2821 51.2857C20.2749 51.2897 20.269 51.2956 20.2647 51.3027L18.9476 53.6028Z" fill="#6769BD"/>
<path d="M27.5195 52.9136L29.938 49.8395C29.9706 49.7985 30.0135 49.778 30.0669 49.778L31.5386 49.7821C31.5619 49.7823 31.5849 49.788 31.6056 49.7988C31.6264 49.8095 31.6443 49.8249 31.658 49.8438C31.6717 49.8627 31.6808 49.8845 31.6846 49.9075C31.6884 49.9305 31.6867 49.954 31.6797 49.9762C31.6399 50.103 31.5676 50.2306 31.4627 50.3591C30.411 51.6355 29.3611 52.9132 28.313 54.1922C28.2877 54.2223 28.275 54.2569 28.275 54.2961V56.026C28.2747 56.0634 28.2599 56.0992 28.2338 56.1257C28.2077 56.1523 28.1724 56.1675 28.1353 56.1682C27.7265 56.1755 27.3205 56.1755 26.9172 56.1682C26.7047 56.1637 26.5993 56.0629 26.6011 55.866C26.6066 55.3528 26.612 54.8468 26.6174 54.3481C26.6183 54.2756 26.5938 54.205 26.5482 54.1485L23.2724 50.0993C23.2494 50.0707 23.2349 50.0362 23.2306 49.9996C23.2262 49.9631 23.2321 49.926 23.2477 49.8928C23.2633 49.8595 23.2879 49.8313 23.3187 49.8115C23.3494 49.7917 23.3851 49.781 23.4216 49.7807C23.9018 49.7789 24.3784 49.778 24.8513 49.778C25.0806 49.7766 27.1166 52.5376 27.4082 52.9122C27.4453 52.9596 27.4824 52.9601 27.5195 52.9136Z" fill="#6769BD"/>
<path d="M33.2591 53.6821C33.2401 54.2018 33.4449 54.6954 34.0472 54.6982C35.4461 54.7037 36.8451 54.7018 38.244 54.6927C38.4032 54.6918 38.5556 54.7205 38.7012 54.7789C38.7527 54.7998 38.7785 54.8377 38.7785 54.8924L38.7825 56.052C38.7825 56.0822 38.7706 56.1112 38.7493 56.1327C38.7279 56.1542 38.6989 56.1665 38.6686 56.1669C37.1033 56.1805 35.5271 56.1773 33.94 56.1573C31.2759 56.1231 31.4848 53.8421 31.6056 51.873C31.6897 50.5164 32.4307 49.8263 33.8288 49.8026C35.367 49.7761 36.9066 49.7702 38.4475 49.7848C38.651 49.7866 38.7568 49.8646 38.7649 50.0186C38.783 50.3806 38.7907 50.7088 38.788 51.0032C38.7862 51.1664 38.7039 51.248 38.5411 51.248C37.0743 51.248 35.6179 51.2494 34.172 51.2521C33.5335 51.253 33.2333 51.5748 33.2713 52.2176C33.2731 52.2558 33.293 52.275 33.331 52.275H38.4434C38.5165 52.275 38.5865 52.3042 38.6381 52.3563C38.6898 52.4084 38.7188 52.479 38.7188 52.5526V53.4374C38.7188 53.4827 38.7009 53.5262 38.6691 53.5582C38.6373 53.5903 38.5942 53.6083 38.5492 53.6083H33.335C33.3153 53.6083 33.2964 53.616 33.2823 53.6297C33.2681 53.6435 33.2598 53.6623 33.2591 53.6821Z" fill="#6769BD"/>
<path d="M39.8491 56.1642C39.7081 56.1551 39.6375 56.0789 39.6375 55.9358L39.6335 50.0638C39.6335 49.9893 39.6627 49.9179 39.7148 49.8651C39.7669 49.8123 39.8377 49.7825 39.9115 49.7821C41.731 49.7739 43.5712 49.7766 45.4323 49.7903C47.136 49.8026 47.2852 51.3616 47.1401 52.6538C47.0632 53.3394 46.6775 53.8016 45.983 54.0405C45.9746 54.0436 45.9671 54.0487 45.9611 54.0554C45.9551 54.0621 45.9508 54.0701 45.9485 54.0789C45.9463 54.0876 45.9461 54.0967 45.9481 54.1055C45.9501 54.1143 45.9542 54.1225 45.96 54.1293L47.4141 55.8291C47.4397 55.8593 47.4563 55.8962 47.4618 55.9355C47.4673 55.9749 47.4615 56.015 47.4451 56.0511C47.4286 56.0872 47.4023 56.1178 47.3692 56.1393C47.336 56.1608 47.2975 56.1723 47.2581 56.1724H45.7673C45.7104 56.1724 45.6638 56.15 45.6276 56.1054L44.202 54.3222C44.174 54.2866 44.1373 54.2684 44.0921 54.2675L41.3548 54.2319C41.3397 54.2319 41.3252 54.2378 41.3145 54.2483C41.3038 54.2588 41.2978 54.2731 41.2978 54.288C41.2969 54.8341 41.2956 55.3824 41.2938 55.9331C41.2929 56.1045 41.2201 56.1861 41.0754 56.1778C40.6616 56.1532 40.2493 56.1874 39.8491 56.1642ZM41.2924 51.3069L41.2978 52.8384C41.2978 52.8613 41.3068 52.8832 41.3229 52.8994C41.3389 52.9155 41.3606 52.9246 41.3833 52.9246L44.8341 52.9123C45.0121 52.9119 45.1827 52.8454 45.3084 52.7274C45.4341 52.6094 45.5045 52.4497 45.5042 52.2832L45.5015 51.8347C45.5013 51.7523 45.4838 51.6707 45.4499 51.5946C45.416 51.5185 45.3664 51.4494 45.3039 51.3912C45.2415 51.333 45.1673 51.287 45.0858 51.2556C45.0042 51.2242 44.9169 51.2082 44.8287 51.2084L41.3779 51.2207C41.3552 51.2207 41.3335 51.2298 41.3174 51.2459C41.3014 51.2621 41.2924 51.284 41.2924 51.3069Z" fill="#6769BD"/>
<path d="M53.3296 53.6602C53.1632 53.6256 52.9959 53.6083 52.8277 53.6083C51.7064 53.611 50.5878 53.6078 49.4719 53.5987C48.1575 53.5864 47.7587 52.5867 47.8496 51.4394C47.9499 50.1745 48.5278 49.7875 49.7296 49.7834C51.4035 49.777 53.0687 49.7761 54.7254 49.7807C54.7786 49.781 54.8294 49.8025 54.867 49.8403C54.9046 49.8782 54.9258 49.9295 54.9262 49.983L54.9302 51.0223C54.9302 51.0521 54.9244 51.0817 54.9131 51.1092C54.9018 51.1367 54.8852 51.1618 54.8643 51.1828C54.8434 51.2039 54.8186 51.2206 54.7912 51.2321C54.7639 51.2435 54.7346 51.2493 54.7051 51.2493H49.8001C49.7347 51.2493 49.6719 51.2756 49.6256 51.3222C49.5793 51.3689 49.5533 51.4322 49.5533 51.4982V52.0329C49.5533 52.0648 49.5595 52.0964 49.5717 52.1259C49.5838 52.1553 49.6016 52.1821 49.6241 52.2045C49.6465 52.227 49.6731 52.2448 49.7024 52.2569C49.7317 52.269 49.7631 52.2751 49.7947 52.275C51.0282 52.2731 52.2644 52.275 53.5033 52.2804C54.4379 52.2859 55.0266 52.7372 55.1459 53.6848C55.3535 55.3203 54.9452 56.1641 53.2048 56.1696C51.4966 56.175 49.7843 56.1755 48.068 56.1709C48.026 56.1705 47.9857 56.1547 47.9546 56.1264C47.9236 56.0982 47.9041 56.0595 47.8998 56.0178C47.8672 55.7128 47.7017 54.694 48.2226 54.694C49.901 54.6968 51.5834 54.7004 53.2699 54.705C53.3009 54.7051 53.3311 54.6954 53.3566 54.6773C53.3821 54.6592 53.4015 54.6335 53.4124 54.6038C53.5119 54.3212 53.5173 54.0367 53.4287 53.7505C53.4133 53.7012 53.3803 53.6712 53.3296 53.6602Z" fill="#6769BD"/>
<path d="M13.3807 63.993C12.981 63.993 12.5977 63.833 12.3151 63.548C12.0325 63.2631 11.8737 62.8767 11.8737 62.4737V59.9986C11.8737 59.4201 12.1054 58.8653 12.5177 58.4563C12.9301 58.0473 13.4893 57.8175 14.0725 57.8175H18.0659C18.6491 57.8175 19.2083 58.0473 19.6207 58.4563C20.0331 58.8653 20.2647 59.4201 20.2647 59.9986V62.4737C20.2647 62.8767 20.1059 63.2631 19.8233 63.548C19.5407 63.833 19.1574 63.993 18.7577 63.993H13.3807ZM18.5776 60.1193C18.5778 60.0155 18.5576 59.9126 18.5184 59.8167C18.4792 59.7207 18.4216 59.6335 18.3489 59.5599C18.2762 59.4864 18.1899 59.4281 18.0948 59.3882C17.9998 59.3483 17.8979 59.3276 17.7949 59.3275L14.3495 59.3214C14.2466 59.3212 14.1446 59.3415 14.0494 59.381C13.9542 59.4206 13.8677 59.4787 13.7947 59.5519C13.7218 59.6252 13.6639 59.7122 13.6243 59.8081C13.5848 59.9039 13.5643 60.0066 13.5641 60.1104L13.5608 62.0058C13.5607 62.1096 13.5808 62.2124 13.62 62.3083C13.6592 62.4043 13.7168 62.4915 13.7895 62.5651C13.8622 62.6386 13.9485 62.697 14.0436 62.7369C14.1386 62.7767 14.2405 62.7974 14.3435 62.7975L17.7889 62.8036C17.8918 62.8038 17.9938 62.7835 18.089 62.744C18.1842 62.7044 18.2708 62.6463 18.3437 62.5731C18.4166 62.4998 18.4745 62.4128 18.5141 62.3169C18.5537 62.2211 18.5741 62.1184 18.5743 62.0146L18.5776 60.1193Z" fill="#6769BD"/>
<path d="M22.8435 59.561L22.8516 63.8973C22.8516 63.9438 22.8286 63.967 22.7824 63.967H21.2591C21.2184 63.967 21.1972 63.9465 21.1954 63.9055C21.1782 63.4378 21.1764 62.9715 21.19 62.5065C21.2266 61.2321 21.1683 60.0027 21.2035 58.7473C21.2144 58.3603 21.4206 57.905 21.8058 57.8571C22.7051 57.7463 23.6126 57.678 24.1511 58.3494C25.2779 59.7561 26.4119 61.171 27.5531 62.5941C27.6715 62.7418 27.7308 62.7203 27.7308 62.5298L27.7335 58.0335C27.7337 58.0042 27.7396 57.9753 27.7509 57.9484C27.7622 57.9215 27.7787 57.8971 27.7995 57.8767C27.8202 57.8564 27.8447 57.8404 27.8715 57.8297C27.8984 57.8191 27.9271 57.814 27.9559 57.8147L29.2432 57.8462C29.3219 57.8489 29.3612 57.8895 29.3612 57.9679L29.3721 63.7263C29.3721 63.7925 29.3461 63.8559 29.2999 63.9028C29.2536 63.9497 29.1908 63.9762 29.1252 63.9766L26.7012 63.9889C26.6506 63.9898 26.609 63.9702 26.5764 63.9301L22.994 59.5077C22.8937 59.3837 22.8435 59.4014 22.8435 59.561Z" fill="#6769BD"/>
<path d="M31.4541 63.9437C30.662 63.9164 30.4002 62.6474 30.3744 62.0101C30.3183 60.6654 30.3197 59.3303 30.3785 58.0047C30.3799 57.9718 30.3926 57.9403 30.4143 57.9157C30.436 57.891 30.4655 57.8747 30.4978 57.8694C30.9681 57.7891 31.4387 57.7923 31.9099 57.8789C31.9499 57.8861 31.9861 57.9075 32.0117 57.9391C32.0374 57.9708 32.0508 58.0106 32.0496 58.0512C32.0198 59.3403 32.0274 60.6367 32.0727 61.9404C32.0917 62.5257 32.3494 62.7527 32.9109 62.7581C34.2556 62.7718 35.6216 62.7764 37.0088 62.7718C37.0799 62.7717 37.1485 62.7991 37.2004 62.8484C37.2523 62.8977 37.2837 62.9652 37.2882 63.0371L37.3371 63.8931C37.3398 63.9415 37.3167 63.9665 37.2679 63.9684C35.3281 64.0176 33.3902 64.0094 31.4541 63.9437Z" fill="#6769BD"/>
<path d="M39.6932 60.9832C40.4764 60.0369 41.2382 59.0733 41.9789 58.0923C42.0223 58.034 42.11 57.9533 42.242 57.8503C42.2791 57.8211 42.3207 57.807 42.3668 57.8079L43.6215 57.827C43.7735 57.8289 43.8521 57.9068 43.8576 58.0609C43.8657 58.3385 40.9181 61.7722 40.522 62.2577C40.4958 62.2896 40.4827 62.3265 40.4827 62.3685L40.4841 63.8795C40.4841 63.9406 40.4533 63.9716 40.3918 63.9725L38.8685 63.993C38.8143 63.993 38.7871 63.9661 38.7871 63.9123V62.4067C38.7871 62.3602 38.7727 62.3188 38.7437 62.2823L35.396 58.1197C35.3785 58.0979 35.3669 58.0719 35.3626 58.0442C35.3583 58.0166 35.3613 57.9882 35.3713 57.9621C35.3814 57.936 35.3981 57.913 35.4199 57.8955C35.4416 57.878 35.4675 57.8667 35.495 57.8626C35.8518 57.812 37.0292 57.6862 37.2733 58.0075C38.0329 59.0085 38.8043 60 39.5874 60.9818C39.6227 61.0265 39.658 61.0269 39.6932 60.9832Z" fill="#6769BD"/>
</svg>
